PathFileType	4	(X/Y/Z)	markers.trc
DataRate	CameraRate	NumFrames	NumMarkers	Units	OrigDataRate	OrigDataStartFrame	OrigNumFrames
200	200	4	29	mm	200	47	185
Frame#	Time	RxCheec			LxCheec			C7			maxkif			RxShould			LxShould			RxElbow			LxElbow			RxWrist			LxWrist			Psis			RxAsis			LxAsis			RxThigh			LxThigh			RxLatCon			LxLatCon			RxFH			LxFH			RxShank			LxShank			RxLatMal			LxLatMal			RxHeel			LxHeel			RxToe1			LxToe1			RxMeta5			LxMeta5			
		X1	Y1	Z1	X2	Y2	Z2	X3	Y3	Z3	X4	Y4	Z4	X5	Y5	Z5	X6	Y6	Z6	X7	Y7	Z7	X8	Y8	Z8	X9	Y9	Z9	X10	Y10	Z10	X11	Y11	Z11	X12	Y12	Z12	X13	Y13	Z13	X14	Y14	Z14	X15	Y15	Z15	X16	Y16	Z16	X17	Y17	Z17	X18	Y18	Z18	X19	Y19	Z19	X20	Y20	Z20	X21	Y21	Z21	X22	Y22	Z22	X23	Y23	Z23	X24	Y24	Z24	X25	Y25	Z25	X26	Y26	Z26	X27	Y27	Z27	X28	Y28	Z28	X29	Y29	Z29

47	1.845	426.98365449905396	1641.5433883666992	305.44325709342957	423.5842525959015	1648.1497287750244	141.3954198360443	283.0355763435364	1572.1604824066162	230.001762509346	192.4557238817215	1356.2349081039429	218.48025918006897	326.1128067970276	1542.6243543624878	375.99340081214905	307.25735425949097	1564.8624897003174	69.68871504068375	251.98176503181458	1194.8517560958862	458.29689502716064	214.17970955371857	1239.16757106781	-53.32988500595093	303.7794828414917	942.8779482841492	479.13068532943726	280.4583013057709	979.4686436653137	-73.61151278018951	217.5142914056778	1043.4225797653198	221.30930423736572	413.88028860092163	1031.896471977234	315.29656052589417	378.91650199890137	1020.9499597549438	67.29677319526672	434.040367603302	687.9985928535461	258.1389546394348	488.3458614349365	698.8583207130432	70.86753100156784	369.5318102836609	505.03087043762207	306.8767488002777	447.9094445705414	505.6084990501404	46.85249924659729	344.95294094085693	446.24704122543335	321.6976225376129	395.092248916626	478.67947816848755	43.60347241163254	365.95168709754944	323.3214020729065	242.02777445316315	369.421124458313	332.91926980018616	97.32900559902191	280.85213899612427	73.2458159327507	283.5329473018646	163.45559060573578	190.59614837169647	112.72770911455154	226.17018222808838	59.31088328361511	234.8300963640213	133.06450843811035	190.57852029800415	182.64807760715485	491.2683665752411	28.900155797600746	237.41470277309418	301.39264464378357	49.02005195617676	46.827949583530426	397.6077437400818	20.36353386938572	308.7421655654907	210.24742722511292	92.0189842581749	42.72531345486641
48	1.85	435.20358204841614	1642.369270324707	304.6967089176178	431.5561056137085	1648.5241651535034	140.62444865703583	291.2696897983551	1572.5609064102173	229.72211241722107	200.70235431194305	1356.618046760559	218.61349046230316	334.69653129577637	1543.4623956680298	375.6064772605896	315.24771451950073	1565.0591850280762	69.30641084909439	262.1985673904419	1195.4103708267212	459.0602517127991	219.73559260368347	1239.6889925003052	-52.61240527033806	317.01818108558655	943.9297318458557	479.1349172592163	282.6291024684906	979.1825413703918	-72.7362111210823	225.6031483411789	1043.7853336334229	220.68382799625397	421.9611883163452	1032.1146249771118	315.3209984302521	387.11485266685486	1021.634578704834	67.21740961074829	438.3922815322876	687.4145269393921	258.21924209594727	499.65721368789673	701.6941905021667	70.16820460557938	371.2293803691864	504.9254894256592	307.3836863040924	461.6471827030182	507.9464316368103	46.624720096588135	346.38553857803345	446.31651043891907	322.20587134361267	409.45494174957275	479.9063503742218	43.33719238638878	366.59619212150574	323.4519362449646	242.2851175069809	387.56251335144043	333.00846815109253	96.25563770532608	280.93913197517395	73.4509751200676	283.2343280315399	185.64045429229736	184.65183675289154	110.65740138292313	226.31728649139404	59.713803231716156	234.5656156539917	154.7388881444931	183.53213369846344	180.42662739753723	491.4063513278961	28.826745226979256	237.51237988471985	328.6595940589905	48.07913675904274	45.18497362732887	397.62911200523376	20.349739119410515	308.7359666824341	236.1370027065277	87.99762278795242	40.78037291765213
49	1.855	443.408340215683	1643.075704574585	303.93335223197937	439.52158093452454	1648.7666368484497	139.83957469463348	299.51566457748413	1572.845697402954	229.42030429840088	208.9453637599945	1356.8929433822632	218.71055662631989	343.23766827583313	1544.2034006118774	375.2199411392212	323.2550323009491	1565.1298761367798	68.90106201171875	272.42645621299744	1195.8532333374023	459.8442316055298	225.33676028251648	1240.0891780853271	-51.88007280230522	330.2867114543915	944.8932409286499	479.1371524333954	284.82356667518616	978.797972202301	-71.8274936079979	233.68294537067413	1044.022798538208	220.0472503900528	430.04974722862244	1032.236933708191	315.36686420440674	395.28870582580566	1022.1788883209229	67.14225560426712	442.7298903465271	686.8032813072205	258.33597779273987	510.89149713516235	704.4006586074829	69.51043754816055	372.86466360092163	504.82869148254395	307.9490661621094	475.2114713191986	510.1432204246521	46.48192599415779	347.6463854312897	446.41751050949097	322.75909185409546	423.75466227531433	480.87242245674133	43.08730363845825	367.3907220363617	323.56369495391846	242.7007555961609	405.6897759437561	333.06142687797546	95.29786556959152	280.98732233047485	73.69080185890198	282.8938066959381	208.09805393218994	178.62193286418915	108.57604444026947	226.47912800312042	60.15370041131973	234.2541664838791	176.70662701129913	176.37468874454498	178.1773716211319	491.55178666114807	28.75218726694584	237.61309683322906	356.05767369270325	47.253258526325226	43.62703487277031	397.6428806781769	20.345784723758698	308.71808528900146	262.2823119163513	84.05404537916183	38.823552429676056
50	1.8599999999999999	451.5966773033142	1643.655776977539	303.15548181533813	447.4850296974182	1648.8795280456543	139.04370367527008	307.77278542518616	1573.0175971984863	229.09429669380188	217.18522906303406	1357.061505317688	218.7698632478714	351.7521321773529	1544.830322265625	374.8350143432617	331.2797248363495	1565.0737285614014	68.47254931926727	282.6629877090454	1196.1801052093506	460.64043045043945	230.98278045654297	1240.3650283813477	-51.132477819919586	343.5894250869751	945.777952671051	479.1385531425476	287.0399057865143	978.32190990448	-70.8828717470169	241.7510598897934	1044.1378355026245	219.40387785434723	438.11628222465515	1032.259225845337	315.41943550109863	403.47304940223694	1022.5858688354492	67.05916672945023	447.0342993736267	686.1431002616882	258.49422812461853	522.0463871955872	706.9726586341858	68.90619546175003	374.4484782218933	504.73904609680176	308.57595801353455	488.58317732810974	512.207567691803	46.412207186222076	348.76903891563416	446.5460777282715	323.3538568019867	437.9734396934509	481.58377408981323	42.83321276307106	368.3276176452637	323.6618638038635	243.26154589653015	423.7951338291168	333.0755829811096	94.45228427648544	281.0002565383911	73.95856827497482	282.5523614883423	230.83220422267914	172.53261804580688	106.49339109659195	226.65680944919586	60.62028557062149	233.92412066459656	199.00497794151306	169.12029683589935	175.91609060764313	491.7040467262268	28.675206005573273	237.71430552005768	383.5827708244324	46.58810794353485	42.11165010929108	397.64726161956787	20.34875936806202	308.6949586868286	288.6562645435333	80.21122217178345	36.82759404182434
